<svg style="min-width:137px" xmlns="http://www.w3.org/2000/svg" xml:space="preserve" viewBox="0 0 709.5 111.6" width="137" height="21">
  <style>
    .st0{fill:#f2f2f2}.st1,.st3,.st4{fill:none;stroke-miterlimit:10}.st1{stroke:gray;stroke-width:.5}.st3{stroke:#ee3d2c}.st4{stroke:#221f1f}.st5{fill:#fff}.st6{fill:none;stroke:#000;stroke-miterlimit:10}
  </style>
	<g id="Small_Scale_Lock-up">
    <path d="M200.6 94.9V6.4h-12.8v33c0 .7-.4 1.3-1.1 1.6-.2.1-.4.1-.6.1-.5 0-1-.2-1.3-.6-4.6-5.4-11.7-8.4-19.6-8.4-16.8 0-29.9 14.2-29.9 32.2 0 8.9 3.1 17 8.6 23 5.5 5.9 13.1 9.2 21.3 9.2 7.7 0 14.9-3.2 19.6-8.8.3-.4.8-.6 1.3-.6.2 0 .4 0 .6.1.7.2 1.1.9 1.1 1.6V95h12.8zM168.3 85c-11.3 0-20.1-9.1-20.1-20.7s8.8-20.7 20.1-20.7 20.1 9.1 20.1 20.7S179.6 85 168.3 85zm105.9 9.9V33.6h-12.7v5.8c0 .7-.4 1.3-1.1 1.6-.2.1-.4.1-.6.1-.5 0-1-.2-1.3-.6C254 35 247.1 32 239 32c-16.8 0-29.9 14.2-29.9 32.2s13.1 32.2 29.9 32.2c7.8 0 14.9-3.2 19.6-8.9.3-.4.8-.6 1.3-.6.2 0 .4 0 .6.1.7.2 1.1.9 1.1 1.6v6.3h12.6zM242.1 85c-11.3 0-20.1-9.1-20.1-20.7s8.8-20.7 20.1-20.7 20.1 9.1 20.1 20.7S253.4 85 242.1 85zm149 9.9V33.6h-12.7v5.8c0 .7-.4 1.3-1.1 1.6-.2.1-.4.1-.6.1-.5 0-1-.2-1.3-.6-4.5-5.4-11.5-8.4-19.6-8.4C339.1 32 326 46.2 326 64.2s13.1 32.2 29.9 32.2c7.8 0 14.9-3.2 19.6-8.9.3-.4.8-.6 1.3-.6.2 0 .4 0 .6.1.7.2 1.1.9 1.1 1.6v6.3h12.6zM359 85c-11.3 0-20.1-9.1-20.1-20.7s8.8-20.7 20.1-20.7 20.1 9.1 20.1 20.7S370.2 85 359 85zm100.1-43.8c-5.5-5.9-13.1-9.2-21.3-9.2-7.7 0-14.9 3.2-19.6 8.8-.3.4-.8.6-1.3.6-.2 0-.4 0-.6-.1-.7-.2-1.1-.9-1.1-1.6V6.3h-12.8v88.5h12.8V89c0-.7.4-1.3 1.1-1.6.2-.1.4-.1.6-.1.5 0 1 .2 1.3.6 4.6 5.4 11.7 8.4 19.6 8.4 16.8 0 29.9-14.2 29.9-32.2.1-8.7-3-16.9-8.6-22.9zM434.8 85c-11.3 0-20.1-9.1-20.1-20.7s8.8-20.7 20.1-20.7 20.1 9.1 20.1 20.7S446 85 434.8 85zM508 45.3c1 0 2 .1 2.8.2V32.4c-.4-.1-1.1-.1-1.8-.1-7 0-13.4 3.6-16.8 9.3-.3.5-.9.8-1.5.8-.1 0-.3 0-.4-.1-.7-.2-1.2-.9-1.2-1.6v-7.2h-12.7v61.4h12.8V68c0-14 7.2-22.7 18.8-22.7zm12.4-11.7V95h12.9V33.6h-12.9zm6.3-27.2c-4.4 0-7.9 3.6-7.9 7.9 0 4.4 3.6 7.9 7.9 7.9 4.4 0 7.9-3.6 7.9-7.9.1-4.3-3.5-7.9-7.9-7.9zm24.6 81c5.8 5.9 14.1 9.1 23.3 9.1 7.5 0 13.4-1.5 24.4-9.4l-7.2-7.5c-5.5 3.6-10.7 5.4-15.8 5.4-11.8 0-20.7-8.9-20.7-20.6s8.9-20.6 20.7-20.6c5.5 0 10.6 1.8 15.6 5.4l8-7.6c-9.9-8.4-18.9-9.4-24.9-9.4-18.8 0-32.5 13.6-32.5 32.2.1 8.9 3.3 17.1 9.1 23zm72.4-19.8c.3-.3.7-.4 1.1-.4h.1c.5 0 .9.3 1.2.6L648 94.9h15.7l-27.9-33.7c-.6-.7-.5-1.6.1-2.3l25.4-25.4h-15.4l-22.4 22.6c-.3.3-.7.5-1.2.5-.2 0-.4 0-.6-.1-.6-.3-1-.9-1-1.6V6.3h-12.8v88.5h12.8V71.1c0-.5.2-.9.5-1.2l2.5-2.3zm63.6 28.9c11.1 0 22.3-6.7 22.3-19.4 0-8.3-5.2-14-16-17.5l-7.5-2.5c-5.3-1.8-7.8-4.3-7.8-7.9 0-4 3.6-6.9 8.7-6.9 4.6 0 8.8 2.9 11.5 8l10.2-5.5c-4-8-12.3-12.9-21.7-12.9-12.1 0-20.8 7.7-20.8 18.4 0 8.4 5.1 14.1 15.5 17.4l7.6 2.5c5.7 1.8 8 4.1 8 7.9 0 5.6-5.2 7.7-9.6 7.7-5.6 0-10.6-3.5-13.2-9.3L664 81.8c3.7 9.1 12.6 14.7 23.3 14.7zm-374.4-.7c4 0 7.7-.3 10-.7V84.2c-1.9.2-4.6.4-6.4.4-5.7 0-10.4-1-10.4-13.5V45.5c0-.9.8-1.7 1.7-1.7h12.9V33.6h-12.9c-.9 0-1.7-.8-1.7-1.7V14.3h-12.7v17.6c0 .9-.8 1.7-1.7 1.7h-9.1v10.2h9.1c.9 0 1.7.8 1.7 1.7v29c0 21.3 14.2 21.3 19.5 21.3z"/>
		<path fill="#ee3d2c" d="M103.4 82.5V62.7l-1.8-1.1-49.9 28.1L4.6 63.2v-12l47.1 26.5 51.7-29.1V29.1l-2.1-1.2-49.6 27.9L6.5 30.4 51.7 5l36.4 20.4 2.8-1.5V22L51.7 0 0 29.1v2.6l51.7 29.1 47.2-26.5v11.9L51.7 72.7l-49.8-28-1.9 1v19.8l51.7 29.1 47.2-26.5v12l-47.2 26.5-49.8-28-1.9 1v2.9l51.7 29.1z"/>
  </g>
</svg>